<svg viewBox="0 0 500 500" xmlns="http://www.w3.org/2000/svg"><line x1="220" y1="146" x2="220" y2="146" stroke="#ff5763" stroke-width="1" />
<line x1="220" y1="146" x2="343" y2="217" stroke="#91de72" stroke-width="1" />
<line x1="402" y1="105" x2="402" y2="105" stroke="#ff6974" stroke-width="1" />
<line x1="447" y1="147" x2="447" y2="147" stroke="#8ddd6e" stroke-width="1" />
<line x1="447" y1="147" x2="141" y2="347" stroke="#ff7a83" stroke-width="1" />
<line x1="447" y1="147" x2="482" y2="113" stroke="#ff929a" stroke-width="1" />
<line x1="40" y1="0" x2="40" y2="0" stroke="#86db65" stroke-width="1" />
<line x1="40" y1="0" x2="389" y2="45" stroke="#8fdd70" stroke-width="1" />
<line x1="63" y1="188" x2="63" y2="188" stroke="#ff8089" stroke-width="1" />
<line x1="63" y1="188" x2="71" y2="302" stroke="#ffa1a7" stroke-width="1" />
<line x1="63" y1="188" x2="239" y2="58" stroke="#ff8c94" stroke-width="1" />
<line x1="448" y1="314" x2="448" y2="314" stroke="#ff858e" stroke-width="1" />
<line x1="448" y1="314" x2="60" y2="14" stroke="#9be17f" stroke-width="1" />
<line x1="448" y1="314" x2="131" y2="427" stroke="#8ddd6e" stroke-width="1" />
<line x1="181" y1="327" x2="181" y2="327" stroke="#ff4855" stroke-width="1" />
<line x1="181" y1="327" x2="89" y2="39" stroke="#ff4754" stroke-width="1" />
<line x1="427" y1="0" x2="427" y2="0" stroke="#ff757e" stroke-width="1" />
<line x1="60" y1="14" x2="60" y2="14" stroke="#a2e388" stroke-width="1" />
<line x1="71" y1="302" x2="71" y2="302" stroke="#64d038" stroke-width="1" />
<line x1="389" y1="45" x2="40" y2="0" stroke="#ff7680" stroke-width="1" />
<line x1="389" y1="45" x2="389" y2="45" stroke="#ff929a" stroke-width="1" />
<line x1="389" y1="45" x2="411" y2="49" stroke="#ff969d" stroke-width="1" />
<line x1="294" y1="253" x2="294" y2="253" stroke="#59cd2b" stroke-width="1" />
<line x1="294" y1="253" x2="38" y2="447" stroke="#59cd2b" stroke-width="1" />
<line x1="89" y1="39" x2="89" y2="39" stroke="#88db67" stroke-width="1" />
<line x1="89" y1="39" x2="469" y2="147" stroke="#6ed345" stroke-width="1" />
<line x1="256" y1="229" x2="256" y2="229" stroke="#ff979f" stroke-width="1" />
<line x1="256" y1="229" x2="203" y2="344" stroke="#ff7680" stroke-width="1" />
<line x1="239" y1="58" x2="239" y2="58" stroke="#5dce2f" stroke-width="1" />
<line x1="116" y1="48" x2="89" y2="39" stroke="#7ad755" stroke-width="1" />
<line x1="116" y1="48" x2="116" y2="48" stroke="#ff8b93" stroke-width="1" />
<line x1="116" y1="48" x2="391" y2="14" stroke="#81d95e" stroke-width="1" />
<line x1="116" y1="48" x2="141" y2="347" stroke="#ff5763" stroke-width="1" />
<line x1="342" y1="424" x2="342" y2="424" stroke="#7ad755" stroke-width="1" />
<line x1="443" y1="398" x2="448" y2="314" stroke="#ff5d68" stroke-width="1" />
<line x1="443" y1="398" x2="443" y2="398" stroke="#6ed345" stroke-width="1" />
<line x1="443" y1="398" x2="299" y2="461" stroke="#ff4a57" stroke-width="1" />
<line x1="443" y1="398" x2="411" y2="49" stroke="#69d23f" stroke-width="1" />
<line x1="143" y1="101" x2="143" y2="101" stroke="#ff5d68" stroke-width="1" />
<line x1="143" y1="101" x2="148" y2="218" stroke="#94df76" stroke-width="1" />
<line x1="391" y1="14" x2="89" y2="39" stroke="#9de182" stroke-width="1" />
<line x1="391" y1="14" x2="391" y2="14" stroke="#94df76" stroke-width="1" />
<line x1="299" y1="461" x2="143" y2="101" stroke="#ff9ba2" stroke-width="1" />
<line x1="299" y1="461" x2="299" y2="461" stroke="#69d23f" stroke-width="1" />
<line x1="131" y1="427" x2="63" y2="188" stroke="#ff606b" stroke-width="1" />
<line x1="131" y1="427" x2="131" y2="427" stroke="#ff7882" stroke-width="1" />
<line x1="396" y1="167" x2="396" y2="167" stroke="#9de182" stroke-width="1" />
<line x1="396" y1="167" x2="343" y2="217" stroke="#67d13c" stroke-width="1" />
<line x1="396" y1="167" x2="423" y2="86" stroke="#ff626d" stroke-width="1" />
<line x1="262" y1="357" x2="262" y2="357" stroke="#ff5561" stroke-width="1" />
<line x1="203" y1="344" x2="63" y2="188" stroke="#81d95e" stroke-width="1" />
<line x1="203" y1="344" x2="448" y2="314" stroke="#ff6b76" stroke-width="1" />
<line x1="203" y1="344" x2="203" y2="344" stroke="#56cc26" stroke-width="1" />
<line x1="286" y1="194" x2="286" y2="194" stroke="#56cc26" stroke-width="1" />
<line x1="343" y1="217" x2="294" y2="253" stroke="#70d448" stroke-width="1" />
<line x1="343" y1="217" x2="286" y2="194" stroke="#ff9098" stroke-width="1" />
<line x1="343" y1="217" x2="343" y2="217" stroke="#ff5965" stroke-width="1" />
<line x1="343" y1="217" x2="38" y2="447" stroke="#ff717b" stroke-width="1" />
<line x1="343" y1="217" x2="363" y2="206" stroke="#ff8c94" stroke-width="1" />
<line x1="492" y1="384" x2="492" y2="384" stroke="#ff6974" stroke-width="1" />
<line x1="492" y1="384" x2="19" y2="440" stroke="#ff8c94" stroke-width="1" />
<line x1="141" y1="347" x2="141" y2="347" stroke="#ff949b" stroke-width="1" />
<line x1="19" y1="440" x2="402" y2="105" stroke="#9ae07d" stroke-width="1" />
<line x1="19" y1="440" x2="19" y2="440" stroke="#88db67" stroke-width="1" />
<line x1="148" y1="218" x2="262" y2="357" stroke="#65d13a" stroke-width="1" />
<line x1="148" y1="218" x2="148" y2="218" stroke="#ff5561" stroke-width="1" />
<line x1="423" y1="86" x2="343" y2="217" stroke="#ff6872" stroke-width="1" />
<line x1="423" y1="86" x2="423" y2="86" stroke="#ff717b" stroke-width="1" />
<line x1="423" y1="86" x2="340" y2="276" stroke="#a4e38b" stroke-width="1" />
<line x1="158" y1="94" x2="239" y2="58" stroke="#ff606b" stroke-width="1" />
<line x1="158" y1="94" x2="143" y2="101" stroke="#7cd857" stroke-width="1" />
<line x1="158" y1="94" x2="158" y2="94" stroke="#ff4e5a" stroke-width="1" />
<line x1="411" y1="49" x2="239" y2="58" stroke="#ff818a" stroke-width="1" />
<line x1="411" y1="49" x2="141" y2="347" stroke="#ff7a83" stroke-width="1" />
<line x1="411" y1="49" x2="411" y2="49" stroke="#ff7882" stroke-width="1" />
<line x1="38" y1="447" x2="60" y2="14" stroke="#6cd343" stroke-width="1" />
<line x1="38" y1="447" x2="203" y2="344" stroke="#70d448" stroke-width="1" />
<line x1="38" y1="447" x2="38" y2="447" stroke="#ff9da4" stroke-width="1" />
<line x1="482" y1="113" x2="448" y2="314" stroke="#59cd2b" stroke-width="1" />
<line x1="482" y1="113" x2="482" y2="113" stroke="#ff525e" stroke-width="1" />
<line x1="363" y1="206" x2="363" y2="206" stroke="#ff9098" stroke-width="1" />
<line x1="469" y1="147" x2="469" y2="147" stroke="#ff7c85" stroke-width="1" />
<line x1="340" y1="276" x2="340" y2="276" stroke="#9fe284" stroke-width="1" />
<line x1="437" y1="445" x2="437" y2="445" stroke="#ff7e87" stroke-width="1" />
<circle cx="220" cy="146" r="11" stroke="#808793" stroke-width="1" fill="#89c9e0"/>
<circle cx="402" cy="105" r="11" stroke="#8b919c" stroke-width="1" fill="#93cde3"/>
<circle cx="447" cy="147" r="19" stroke="#68707e" stroke-width="1" fill="#73bedb"/>
<circle cx="40" cy="0" r="12" stroke="#828994" stroke-width="1" fill="#8bc9e1"/>
<circle cx="63" cy="188" r="19" stroke="#7e8591" stroke-width="1" fill="#87c8e0"/>
<circle cx="448" cy="314" r="13" stroke="#253145" stroke-width="1" fill="#35a2cb"/>
<circle cx="181" cy="327" r="13" stroke="#475162" stroke-width="1" fill="#55b0d3"/>
<circle cx="427" cy="0" r="14" stroke="#3c4759" stroke-width="1" fill="#4bacd0"/>
<circle cx="60" cy="14" r="11" stroke="#6f7784" stroke-width="1" fill="#79c1dc"/>
<circle cx="71" cy="302" r="16" stroke="#808793" stroke-width="1" fill="#89c9e0"/>
<circle cx="389" cy="45" r="17" stroke="#4e5868" stroke-width="1" fill="#5bb3d4"/>
<circle cx="294" cy="253" r="10" stroke="#878d98" stroke-width="1" fill="#8fcbe2"/>
<circle cx="89" cy="39" r="17" stroke="#878d98" stroke-width="1" fill="#8fcbe2"/>
<circle cx="256" cy="229" r="10" stroke="#414b5d" stroke-width="1" fill="#4faed1"/>
<circle cx="239" cy="58" r="12" stroke="#2f3b4e" stroke-width="1" fill="#3fa6cd"/>
<circle cx="116" cy="48" r="16" stroke="#898f9a" stroke-width="1" fill="#91cce2"/>
<circle cx="342" cy="424" r="19" stroke="#646c7a" stroke-width="1" fill="#6fbcda"/>
<circle cx="443" cy="398" r="17" stroke="#737b87" stroke-width="1" fill="#7dc3dd"/>
<circle cx="143" cy="101" r="18" stroke="#8f95a0" stroke-width="1" fill="#97cfe4"/>
<circle cx="391" cy="14" r="13" stroke="#7e8591" stroke-width="1" fill="#87c8e0"/>
<circle cx="299" cy="461" r="11" stroke="#646c7a" stroke-width="1" fill="#6fbcda"/>
<circle cx="131" cy="427" r="10" stroke="#717986" stroke-width="1" fill="#7bc2dd"/>
<circle cx="396" cy="167" r="12" stroke="#777f8b" stroke-width="1" fill="#81c5de"/>
<circle cx="262" cy="357" r="11" stroke="#5b6473" stroke-width="1" fill="#67b9d8"/>
<circle cx="203" cy="344" r="11" stroke="#4a5464" stroke-width="1" fill="#57b1d3"/>
<circle cx="286" cy="194" r="10" stroke="#878d98" stroke-width="1" fill="#8fcbe2"/>
<circle cx="343" cy="217" r="18" stroke="#3f495b" stroke-width="1" fill="#4dadd1"/>
<circle cx="492" cy="384" r="16" stroke="#757d89" stroke-width="1" fill="#7fc4de"/>
<circle cx="141" cy="347" r="19" stroke="#5d6675" stroke-width="1" fill="#69bad8"/>
<circle cx="19" cy="440" r="10" stroke="#68707e" stroke-width="1" fill="#73bedb"/>
<circle cx="148" cy="218" r="19" stroke="#7a818d" stroke-width="1" fill="#83c6df"/>
<circle cx="423" cy="86" r="19" stroke="#4a5464" stroke-width="1" fill="#57b1d3"/>
<circle cx="158" cy="94" r="13" stroke="#454f60" stroke-width="1" fill="#53afd2"/>
<circle cx="411" cy="49" r="11" stroke="#878d98" stroke-width="1" fill="#8fcbe2"/>
<circle cx="38" cy="447" r="18" stroke="#6a7280" stroke-width="1" fill="#75bfdb"/>
<circle cx="482" cy="113" r="18" stroke="#293548" stroke-width="1" fill="#39a3cc"/>
<circle cx="363" cy="206" r="10" stroke="#3a4557" stroke-width="1" fill="#49abd0"/>
<circle cx="469" cy="147" r="16" stroke="#626a79" stroke-width="1" fill="#6dbcd9"/>
<circle cx="340" cy="276" r="17" stroke="#2b374a" stroke-width="1" fill="#3ba4cc"/>
<circle cx="437" cy="445" r="10" stroke="#596271" stroke-width="1" fill="#65b8d7"/></svg>