<svg viewBox="0 0 500 500" xmlns="http://www.w3.org/2000/svg"><line x1="295" y1="208" x2="295" y2="208" stroke="#77d651" stroke-width="1" />
<line x1="295" y1="208" x2="74" y2="160" stroke="#ff6974" stroke-width="1" />
<line x1="146" y1="43" x2="146" y2="43" stroke="#ff4e5a" stroke-width="1" />
<line x1="146" y1="43" x2="158" y2="13" stroke="#ff5965" stroke-width="1" />
<line x1="145" y1="20" x2="145" y2="20" stroke="#ff8991" stroke-width="1" />
<line x1="145" y1="20" x2="78" y2="84" stroke="#ff4754" stroke-width="1" />
<line x1="491" y1="496" x2="295" y2="208" stroke="#ff979f" stroke-width="1" />
<line x1="491" y1="496" x2="491" y2="496" stroke="#93de74" stroke-width="1" />
<line x1="491" y1="496" x2="463" y2="490" stroke="#8cdc6b" stroke-width="1" />
<line x1="463" y1="490" x2="463" y2="490" stroke="#96df79" stroke-width="1" />
<line x1="230" y1="227" x2="230" y2="227" stroke="#96df79" stroke-width="1" />
<line x1="230" y1="227" x2="204" y2="371" stroke="#67d13c" stroke-width="1" />
<line x1="173" y1="259" x2="173" y2="259" stroke="#a4e38b" stroke-width="1" />
<line x1="39" y1="457" x2="39" y2="457" stroke="#70d448" stroke-width="1" />
<line x1="39" y1="457" x2="67" y2="453" stroke="#ff9da4" stroke-width="1" />
<line x1="39" y1="457" x2="81" y2="452" stroke="#ff8991" stroke-width="1" />
<line x1="39" y1="457" x2="98" y2="91" stroke="#a1e286" stroke-width="1" />
<line x1="344" y1="370" x2="463" y2="490" stroke="#88db67" stroke-width="1" />
<line x1="344" y1="370" x2="344" y2="370" stroke="#75d54e" stroke-width="1" />
<line x1="344" y1="370" x2="204" y2="371" stroke="#73d54c" stroke-width="1" />
<line x1="168" y1="494" x2="168" y2="494" stroke="#ff9fa6" stroke-width="1" />
<line x1="168" y1="494" x2="67" y2="453" stroke="#ff929a" stroke-width="1" />
<line x1="168" y1="494" x2="117" y2="420" stroke="#ff4855" stroke-width="1" />
<line x1="262" y1="395" x2="262" y2="395" stroke="#67d13c" stroke-width="1" />
<line x1="262" y1="395" x2="248" y2="243" stroke="#ff6872" stroke-width="1" />
<line x1="67" y1="453" x2="67" y2="453" stroke="#a4e38b" stroke-width="1" />
<line x1="67" y1="453" x2="81" y2="452" stroke="#9de182" stroke-width="1" />
<line x1="74" y1="160" x2="74" y2="160" stroke="#ff4855" stroke-width="1" />
<line x1="2" y1="497" x2="262" y2="395" stroke="#56cc26" stroke-width="1" />
<line x1="2" y1="497" x2="2" y2="497" stroke="#ff99a0" stroke-width="1" />
<line x1="204" y1="371" x2="173" y2="259" stroke="#56cc26" stroke-width="1" />
<line x1="204" y1="371" x2="204" y2="371" stroke="#6ed345" stroke-width="1" />
<line x1="204" y1="371" x2="248" y2="243" stroke="#ff8089" stroke-width="1" />
<line x1="59" y1="148" x2="59" y2="148" stroke="#96df79" stroke-width="1" />
<line x1="158" y1="13" x2="158" y2="13" stroke="#85da62" stroke-width="1" />
<line x1="158" y1="13" x2="205" y2="28" stroke="#ff6671" stroke-width="1" />
<line x1="158" y1="13" x2="248" y2="243" stroke="#77d651" stroke-width="1" />
<line x1="416" y1="356" x2="158" y2="13" stroke="#7cd857" stroke-width="1" />
<line x1="416" y1="356" x2="416" y2="356" stroke="#9ae07d" stroke-width="1" />
<line x1="204" y1="275" x2="204" y2="275" stroke="#9be17f" stroke-width="1" />
<line x1="204" y1="275" x2="378" y2="24" stroke="#73d54c" stroke-width="1" />
<line x1="121" y1="340" x2="121" y2="340" stroke="#ff6671" stroke-width="1" />
<line x1="227" y1="465" x2="227" y2="465" stroke="#ff8089" stroke-width="1" />
<line x1="227" y1="465" x2="356" y2="349" stroke="#ff6872" stroke-width="1" />
<line x1="227" y1="465" x2="12" y2="299" stroke="#7ed859" stroke-width="1" />
<line x1="428" y1="394" x2="428" y2="394" stroke="#72d44a" stroke-width="1" />
<line x1="428" y1="394" x2="474" y2="391" stroke="#56cc26" stroke-width="1" />
<line x1="78" y1="84" x2="78" y2="84" stroke="#70d448" stroke-width="1" />
<line x1="78" y1="84" x2="98" y2="91" stroke="#ff6872" stroke-width="1" />
<line x1="305" y1="451" x2="262" y2="395" stroke="#83da60" stroke-width="1" />
<line x1="305" y1="451" x2="204" y2="371" stroke="#a2e388" stroke-width="1" />
<line x1="305" y1="451" x2="305" y2="451" stroke="#ff737d" stroke-width="1" />
<line x1="305" y1="451" x2="117" y2="420" stroke="#9de182" stroke-width="1" />
<line x1="474" y1="391" x2="474" y2="391" stroke="#ff6671" stroke-width="1" />
<line x1="317" y1="481" x2="204" y2="275" stroke="#85da62" stroke-width="1" />
<line x1="317" y1="481" x2="227" y2="465" stroke="#ff818a" stroke-width="1" />
<line x1="317" y1="481" x2="317" y2="481" stroke="#62d036" stroke-width="1" />
<line x1="376" y1="352" x2="344" y2="370" stroke="#94df76" stroke-width="1" />
<line x1="376" y1="352" x2="262" y2="395" stroke="#75d54e" stroke-width="1" />
<line x1="376" y1="352" x2="305" y2="451" stroke="#a2e388" stroke-width="1" />
<line x1="376" y1="352" x2="376" y2="352" stroke="#ff6b76" stroke-width="1" />
<line x1="356" y1="349" x2="376" y2="352" stroke="#5dce2f" stroke-width="1" />
<line x1="356" y1="349" x2="356" y2="349" stroke="#56cc26" stroke-width="1" />
<line x1="12" y1="299" x2="12" y2="299" stroke="#ff949b" stroke-width="1" />
<line x1="12" y1="299" x2="117" y2="420" stroke="#ff4c59" stroke-width="1" />
<line x1="117" y1="420" x2="117" y2="420" stroke="#67d13c" stroke-width="1" />
<line x1="414" y1="185" x2="414" y2="185" stroke="#ff99a0" stroke-width="1" />
<line x1="205" y1="28" x2="205" y2="28" stroke="#ff4754" stroke-width="1" />
<line x1="378" y1="24" x2="378" y2="24" stroke="#ff7680" stroke-width="1" />
<line x1="81" y1="452" x2="67" y2="453" stroke="#8cdc6b" stroke-width="1" />
<line x1="81" y1="452" x2="117" y2="420" stroke="#ff7680" stroke-width="1" />
<line x1="81" y1="452" x2="205" y2="28" stroke="#5ecf31" stroke-width="1" />
<line x1="81" y1="452" x2="81" y2="452" stroke="#ff535f" stroke-width="1" />
<line x1="469" y1="318" x2="39" y2="457" stroke="#ff818a" stroke-width="1" />
<line x1="469" y1="318" x2="416" y2="356" stroke="#ff606b" stroke-width="1" />
<line x1="469" y1="318" x2="469" y2="318" stroke="#ff6872" stroke-width="1" />
<line x1="63" y1="392" x2="121" y2="340" stroke="#ff4a57" stroke-width="1" />
<line x1="63" y1="392" x2="63" y2="392" stroke="#ff646f" stroke-width="1" />
<line x1="80" y1="275" x2="74" y2="160" stroke="#75d54e" stroke-width="1" />
<line x1="80" y1="275" x2="80" y2="275" stroke="#ff7680" stroke-width="1" />
<line x1="98" y1="91" x2="98" y2="91" stroke="#ff9fa6" stroke-width="1" />
<line x1="248" y1="243" x2="356" y2="349" stroke="#ff6b76" stroke-width="1" />
<line x1="248" y1="243" x2="248" y2="243" stroke="#ff9098" stroke-width="1" />
<line x1="53" y1="128" x2="204" y2="371" stroke="#67d13c" stroke-width="1" />
<line x1="53" y1="128" x2="59" y2="148" stroke="#ff9098" stroke-width="1" />
<line x1="53" y1="128" x2="78" y2="84" stroke="#ff4e5a" stroke-width="1" />
<line x1="53" y1="128" x2="53" y2="128" stroke="#ff5d68" stroke-width="1" />
<circle cx="295" cy="208" r="13" stroke="#898f9a" stroke-width="1" fill="#91cce2"/>
<circle cx="146" cy="43" r="14" stroke="#777f8b" stroke-width="1" fill="#81c5de"/>
<circle cx="145" cy="20" r="16" stroke="#4c5666" stroke-width="1" fill="#59b2d4"/>
<circle cx="491" cy="496" r="17" stroke="#646c7a" stroke-width="1" fill="#6fbcda"/>
<circle cx="463" cy="490" r="19" stroke="#434d5f" stroke-width="1" fill="#51afd2"/>
<circle cx="230" cy="227" r="19" stroke="#454f60" stroke-width="1" fill="#53afd2"/>
<circle cx="173" cy="259" r="11" stroke="#384355" stroke-width="1" fill="#47aacf"/>
<circle cx="39" cy="457" r="16" stroke="#434d5f" stroke-width="1" fill="#51afd2"/>
<circle cx="344" cy="370" r="14" stroke="#68707e" stroke-width="1" fill="#73bedb"/>
<circle cx="168" cy="494" r="13" stroke="#7c838f" stroke-width="1" fill="#85c7df"/>
<circle cx="262" cy="395" r="15" stroke="#3f495b" stroke-width="1" fill="#4dadd1"/>
<circle cx="67" cy="453" r="16" stroke="#454f60" stroke-width="1" fill="#53afd2"/>
<circle cx="74" cy="160" r="13" stroke="#626a79" stroke-width="1" fill="#6dbcd9"/>
<circle cx="2" cy="497" r="17" stroke="#3f495b" stroke-width="1" fill="#4dadd1"/>
<circle cx="204" cy="371" r="13" stroke="#666e7c" stroke-width="1" fill="#71bdda"/>
<circle cx="59" cy="148" r="12" stroke="#6c7482" stroke-width="1" fill="#77c0dc"/>
<circle cx="158" cy="13" r="18" stroke="#777f8b" stroke-width="1" fill="#81c5de"/>
<circle cx="416" cy="356" r="14" stroke="#6c7482" stroke-width="1" fill="#77c0dc"/>
<circle cx="204" cy="275" r="13" stroke="#6c7482" stroke-width="1" fill="#77c0dc"/>
<circle cx="121" cy="340" r="16" stroke="#6f7784" stroke-width="1" fill="#79c1dc"/>
<circle cx="227" cy="465" r="17" stroke="#253145" stroke-width="1" fill="#35a2cb"/>
<circle cx="428" cy="394" r="16" stroke="#7a818d" stroke-width="1" fill="#83c6df"/>
<circle cx="78" cy="84" r="15" stroke="#293548" stroke-width="1" fill="#39a3cc"/>
<circle cx="305" cy="451" r="18" stroke="#253145" stroke-width="1" fill="#35a2cb"/>
<circle cx="474" cy="391" r="13" stroke="#414b5d" stroke-width="1" fill="#4faed1"/>
<circle cx="317" cy="481" r="11" stroke="#343f52" stroke-width="1" fill="#43a8ce"/>
<circle cx="376" cy="352" r="12" stroke="#3c4759" stroke-width="1" fill="#4bacd0"/>
<circle cx="356" cy="349" r="10" stroke="#414b5d" stroke-width="1" fill="#4faed1"/>
<circle cx="12" cy="299" r="19" stroke="#57606f" stroke-width="1" fill="#63b7d6"/>
<circle cx="117" cy="420" r="11" stroke="#808793" stroke-width="1" fill="#89c9e0"/>
<circle cx="414" cy="185" r="10" stroke="#7a818d" stroke-width="1" fill="#83c6df"/>
<circle cx="205" cy="28" r="16" stroke="#5f6877" stroke-width="1" fill="#6bbbd9"/>
<circle cx="378" cy="24" r="17" stroke="#757d89" stroke-width="1" fill="#7fc4de"/>
<circle cx="81" cy="452" r="17" stroke="#3a4557" stroke-width="1" fill="#49abd0"/>
<circle cx="469" cy="318" r="16" stroke="#848b96" stroke-width="1" fill="#8dcae1"/>
<circle cx="63" cy="392" r="12" stroke="#6c7482" stroke-width="1" fill="#77c0dc"/>
<circle cx="80" cy="275" r="17" stroke="#343f52" stroke-width="1" fill="#43a8ce"/>
<circle cx="98" cy="91" r="10" stroke="#2f3b4e" stroke-width="1" fill="#3fa6cd"/>
<circle cx="248" cy="243" r="14" stroke="#505a6a" stroke-width="1" fill="#5db4d5"/>
<circle cx="53" cy="128" r="17" stroke="#6a7280" stroke-width="1" fill="#75bfdb"/></svg>