<svg viewBox="0 0 500 500" xmlns="http://www.w3.org/2000/svg"><line x1="241" y1="101" x2="241" y2="101" stroke="#ff858e" stroke-width="1" />
<line x1="241" y1="101" x2="280" y2="28" stroke="#51cb20" stroke-width="1" />
<line x1="91" y1="352" x2="91" y2="352" stroke="#7fd95c" stroke-width="1" />
<line x1="91" y1="352" x2="95" y2="346" stroke="#7ad755" stroke-width="1" />
<line x1="91" y1="352" x2="155" y2="191" stroke="#ff878f" stroke-width="1" />
<line x1="91" y1="352" x2="280" y2="28" stroke="#ff9ba2" stroke-width="1" />
<line x1="264" y1="78" x2="264" y2="78" stroke="#ff8c94" stroke-width="1" />
<line x1="264" y1="78" x2="288" y2="71" stroke="#ff6b76" stroke-width="1" />
<line x1="460" y1="148" x2="460" y2="148" stroke="#7cd857" stroke-width="1" />
<line x1="460" y1="148" x2="285" y2="218" stroke="#ff969d" stroke-width="1" />
<line x1="460" y1="148" x2="190" y2="242" stroke="#8ddd6e" stroke-width="1" />
<line x1="71" y1="262" x2="235" y2="145" stroke="#72d44a" stroke-width="1" />
<line x1="387" y1="219" x2="387" y2="219" stroke="#ff8991" stroke-width="1" />
<line x1="387" y1="219" x2="280" y2="28" stroke="#ff6671" stroke-width="1" />
<line x1="387" y1="219" x2="223" y2="371" stroke="#ff6b76" stroke-width="1" />
<line x1="127" y1="475" x2="127" y2="475" stroke="#ff6671" stroke-width="1" />
<line x1="130" y1="325" x2="130" y2="325" stroke="#ff4c59" stroke-width="1" />
<line x1="27" y1="151" x2="130" y2="325" stroke="#5ecf31" stroke-width="1" />
<line x1="27" y1="151" x2="380" y2="130" stroke="#ff6974" stroke-width="1" />
<line x1="151" y1="153" x2="387" y2="219" stroke="#ff9ba2" stroke-width="1" />
<line x1="151" y1="153" x2="55" y2="165" stroke="#77d651" stroke-width="1" />
<line x1="336" y1="458" x2="457" y2="173" stroke="#ff757e" stroke-width="1" />
<line x1="177" y1="442" x2="155" y2="191" stroke="#ff818a" stroke-width="1" />
<line x1="251" y1="288" x2="190" y2="288" stroke="#52cb22" stroke-width="1" />
<line x1="251" y1="288" x2="469" y2="251" stroke="#ff7a83" stroke-width="1" />
<line x1="285" y1="218" x2="285" y2="218" stroke="#ff4855" stroke-width="1" />
<line x1="285" y1="218" x2="332" y2="14" stroke="#7cd857" stroke-width="1" />
<line x1="285" y1="218" x2="469" y2="251" stroke="#ff9ba2" stroke-width="1" />
<line x1="190" y1="288" x2="460" y2="148" stroke="#ff878f" stroke-width="1" />
<line x1="190" y1="288" x2="251" y2="288" stroke="#72d44a" stroke-width="1" />
<line x1="459" y1="45" x2="469" y2="251" stroke="#7ad755" stroke-width="1" />
<line x1="476" y1="413" x2="476" y2="413" stroke="#ff9ba2" stroke-width="1" />
<line x1="106" y1="27" x2="190" y2="288" stroke="#98e07b" stroke-width="1" />
<line x1="106" y1="27" x2="467" y2="192" stroke="#62d036" stroke-width="1" />
<line x1="184" y1="422" x2="127" y2="475" stroke="#ff4855" stroke-width="1" />
<line x1="184" y1="422" x2="184" y2="422" stroke="#64d038" stroke-width="1" />
<line x1="280" y1="28" x2="55" y2="165" stroke="#ff929a" stroke-width="1" />
<line x1="264" y1="47" x2="264" y2="78" stroke="#67d13c" stroke-width="1" />
<line x1="55" y1="165" x2="325" y2="348" stroke="#65d13a" stroke-width="1" />
<line x1="205" y1="264" x2="205" y2="264" stroke="#9be17f" stroke-width="1" />
<line x1="205" y1="264" x2="223" y2="371" stroke="#56cc26" stroke-width="1" />
<line x1="332" y1="14" x2="332" y2="14" stroke="#5ecf31" stroke-width="1" />
<line x1="493" y1="312" x2="493" y2="312" stroke="#7cd857" stroke-width="1" />
<line x1="325" y1="348" x2="493" y2="312" stroke="#ff4754" stroke-width="1" />
<line x1="325" y1="348" x2="469" y2="251" stroke="#ff969d" stroke-width="1" />
<line x1="209" y1="224" x2="241" y2="101" stroke="#9de182" stroke-width="1" />
<line x1="209" y1="224" x2="285" y2="218" stroke="#6ed345" stroke-width="1" />
<line x1="467" y1="192" x2="457" y2="173" stroke="#ff6d77" stroke-width="1" />
<line x1="239" y1="139" x2="209" y2="224" stroke="#ffa1a7" stroke-width="1" />
<line x1="239" y1="139" x2="235" y2="145" stroke="#ff969d" stroke-width="1" />
<line x1="239" y1="139" x2="223" y2="371" stroke="#70d448" stroke-width="1" />
<line x1="288" y1="71" x2="285" y2="218" stroke="#ff4e5a" stroke-width="1" />
<line x1="288" y1="71" x2="288" y2="71" stroke="#ff4a57" stroke-width="1" />
<line x1="235" y1="145" x2="190" y2="288" stroke="#91de72" stroke-width="1" />
<line x1="235" y1="145" x2="190" y2="242" stroke="#8fdd70" stroke-width="1" />
<line x1="223" y1="371" x2="91" y2="352" stroke="#6ed345" stroke-width="1" />
<line x1="223" y1="371" x2="127" y2="475" stroke="#ff9fa6" stroke-width="1" />
<line x1="469" y1="251" x2="288" y2="71" stroke="#a4e38b" stroke-width="1" />
<line x1="190" y1="242" x2="127" y2="475" stroke="#56cc26" stroke-width="1" />
<line x1="457" y1="173" x2="457" y2="173" stroke="#ff535f" stroke-width="1" />
<line x1="316" y1="356" x2="316" y2="356" stroke="#ff929a" stroke-width="1" />
<circle cx="241" cy="101" r="14" stroke="#828994" stroke-width="1" fill="#8bc9e1"/>
<circle cx="91" cy="352" r="17" stroke="#5f6877" stroke-width="1" fill="#6bbbd9"/>
<circle cx="264" cy="78" r="15" stroke="#293548" stroke-width="1" fill="#39a3cc"/>
<circle cx="460" cy="148" r="15" stroke="#757d89" stroke-width="1" fill="#7fc4de"/>
<circle cx="71" cy="262" r="18" stroke="#414b5d" stroke-width="1" fill="#4faed1"/>
<circle cx="387" cy="219" r="15" stroke="#323d50" stroke-width="1" fill="#41a7ce"/>
<circle cx="127" cy="475" r="17" stroke="#4a5464" stroke-width="1" fill="#57b1d3"/>
<circle cx="130" cy="325" r="16" stroke="#3a4557" stroke-width="1" fill="#49abd0"/>
<circle cx="380" cy="130" r="19" stroke="#898f9a" stroke-width="1" fill="#91cce2"/>
<circle cx="27" cy="151" r="15" stroke="#68707e" stroke-width="1" fill="#73bedb"/>
<circle cx="95" cy="346" r="11" stroke="#4a5464" stroke-width="1" fill="#57b1d3"/>
<circle cx="151" cy="153" r="17" stroke="#7a818d" stroke-width="1" fill="#83c6df"/>
<circle cx="336" cy="458" r="16" stroke="#475162" stroke-width="1" fill="#55b0d3"/>
<circle cx="177" cy="442" r="18" stroke="#596271" stroke-width="1" fill="#65b8d7"/>
<circle cx="251" cy="288" r="14" stroke="#646c7a" stroke-width="1" fill="#6fbcda"/>
<circle cx="285" cy="218" r="14" stroke="#364153" stroke-width="1" fill="#45a9cf"/>
<circle cx="155" cy="191" r="14" stroke="#293548" stroke-width="1" fill="#39a3cc"/>
<circle cx="358" cy="474" r="10" stroke="#808793" stroke-width="1" fill="#89c9e0"/>
<circle cx="190" cy="288" r="18" stroke="#757d89" stroke-width="1" fill="#7fc4de"/>
<circle cx="459" cy="45" r="18" stroke="#343f52" stroke-width="1" fill="#43a8ce"/>
<circle cx="476" cy="413" r="16" stroke="#848b96" stroke-width="1" fill="#8dcae1"/>
<circle cx="106" cy="27" r="17" stroke="#646c7a" stroke-width="1" fill="#6fbcda"/>
<circle cx="184" cy="422" r="10" stroke="#7c838f" stroke-width="1" fill="#85c7df"/>
<circle cx="280" cy="28" r="13" stroke="#3f495b" stroke-width="1" fill="#4dadd1"/>
<circle cx="264" cy="47" r="11" stroke="#475162" stroke-width="1" fill="#55b0d3"/>
<circle cx="55" cy="165" r="18" stroke="#293548" stroke-width="1" fill="#39a3cc"/>
<circle cx="205" cy="264" r="18" stroke="#7e8591" stroke-width="1" fill="#87c8e0"/>
<circle cx="332" cy="14" r="10" stroke="#2f3b4e" stroke-width="1" fill="#3fa6cd"/>
<circle cx="493" cy="312" r="19" stroke="#808793" stroke-width="1" fill="#89c9e0"/>
<circle cx="325" cy="348" r="14" stroke="#596271" stroke-width="1" fill="#65b8d7"/>
<circle cx="209" cy="224" r="13" stroke="#4e5868" stroke-width="1" fill="#5bb3d4"/>
<circle cx="467" cy="192" r="12" stroke="#596271" stroke-width="1" fill="#65b8d7"/>
<circle cx="239" cy="139" r="15" stroke="#4a5464" stroke-width="1" fill="#57b1d3"/>
<circle cx="288" cy="71" r="12" stroke="#646c7a" stroke-width="1" fill="#6fbcda"/>
<circle cx="235" cy="145" r="13" stroke="#384355" stroke-width="1" fill="#47aacf"/>
<circle cx="223" cy="371" r="10" stroke="#8f95a0" stroke-width="1" fill="#97cfe4"/>
<circle cx="469" cy="251" r="17" stroke="#434d5f" stroke-width="1" fill="#51afd2"/>
<circle cx="190" cy="242" r="13" stroke="#68707e" stroke-width="1" fill="#73bedb"/>
<circle cx="457" cy="173" r="18" stroke="#4e5868" stroke-width="1" fill="#5bb3d4"/>
<circle cx="316" cy="356" r="15" stroke="#3c4759" stroke-width="1" fill="#4bacd0"/></svg>